<svg t="1657805405463" class="icon" viewBox="0 0 1025 1024" version="1.1" xmlns="http://www.w3.org/2000/svg" p-id="3370" width="200" height="200"><path d="M680.332 868.548C629.412 892.558 572.529 906 512.5 906c-217.601 0-394-176.399-394-394 0-217.6 176.399-394 394-394 217.6 0 394 176.4 394 394 0 77.83-22.566 150.39-61.515 211.491-7.526 11.809-15.685 23.173-24.396 34.077-0.58 0.727-10.923 26.809 7.744 37.433s41.798-9.866 41.798-9.866c6.146-8.035 12.042-16.27 17.646-24.718C934.996 689.228 962.5 603.826 962.5 512c0-248.528-201.472-450-450-450s-450 201.472-450 450 201.472 450 450 450c68.382 0 133.191-15.271 191.229-42.561 0.178-0.084 0.355-0.168 0.533-0.252 1.753-0.826 19.487-18.438 11.862-36.438S680.332 868.548 680.332 868.548z" p-id="3371"></path><path d="M668.608 361.235c0-88.38-71.637-160.036-160.019-160.036-88.362 0-159.98 71.635-159.98 160.036 0 88.339 71.619 159.964 159.98 159.964C596.971 521.199 668.608 449.553 668.608 361.235M404.59 361.232c0-57.453 46.546-104.016 104.001-104.016 57.486 0 104 46.563 104 104.016 0 57.422-46.516 103.984-104 103.984C451.136 465.202 404.591 418.639 404.59 361.232" p-id="3372"></path><path d="M786.035 684.801c-25.363-116.152-122.805-205.346-243.104-218.347-9.107-0.984-18.422 0.397-27.77 0.308l2.588 54.105c100.617 2.314 184.826 70.973 210.611 163.934L296.64 684.801c12.719-45.855 39.655-85.799 75.765-114.783 0 0 10.549-20.381-1.826-34.256s-36.071-7.088-36.071-7.088c-47.538 39.203-81.928 93.779-95.542 156.127-3.947 18.076-6.146 36.805-6.415 56l56.001 0 447.898 0 56 0C792.18 721.605 789.983 702.877 786.035 684.801z" p-id="3373"></path></svg>