<?xml version="1.0" encoding="utf-8"?>
<!-- Generator: Adobe Illustrator 25.3.1, SVG Export Plug-In . SVG Version: 6.00 Build 0)  -->
<svg version="1.1" id="图层_1" xmlns="http://www.w3.org/2000/svg" xmlns:xlink="http://www.w3.org/1999/xlink" x="0px" y="0px"
	 viewBox="0 0 200 200" style="enable-background:new 0 0 200 200;" xml:space="preserve">
<style type="text/css">
	.st0{fill:#CDCDCD;}
</style>
<path class="st0" d="M186.3,60.5c0,1.2-0.4,2.5-1.3,3.4l-75.4,78c-4.9,5.1-13,5.2-18.1,0.3c0,0,0,0-0.1-0.1L14,63.9
	c-1.9-1.9-1.9-4.9,0-6.8c1.9-1.9,4.9-1.9,6.8,0l77.4,78.1c0.6,0.6,1.4,0.9,2.2,0.9c0.9,0,1.7-0.4,2.2-1l75.4-78
	c1.8-1.9,4.9-2,6.8-0.1C185.8,58,186.3,59.2,186.3,60.5z"/>
</svg>
