<?xml version="1.0" encoding="utf-8"?>
<!-- Generator: Adobe Illustrator 25.3.1, SVG Export Plug-In . SVG Version: 6.00 Build 0)  -->
<svg version="1.1" id="图层_1" xmlns="http://www.w3.org/2000/svg" xmlns:xlink="http://www.w3.org/1999/xlink" x="0px" y="0px"
	 viewBox="0 0 200 200" style="enable-background:new 0 0 200 200;" xml:space="preserve">
<style type="text/css">
	.st0{fill:#CDCDCD;}
</style>
<path class="st0" d="M62,13.2c1.2,0,2.5,0.5,3.4,1.4l76.7,76.7c5,5,5,13.1,0,18.1c0,0,0,0-0.1,0.1l-79.5,76.1
	c-1.9,1.8-4.9,1.8-6.8-0.1c-1.8-1.9-1.8-4.9,0.1-6.8l79.4-76.1c0.6-0.6,0.9-1.4,0.9-2.2c0-0.9-0.3-1.7-0.9-2.3L58.6,21.4
	c-1.9-1.9-1.9-4.9,0-6.8C59.6,13.7,60.8,13.2,62,13.2z"/>
</svg>
