<svg t="1647840056203" class="icon" viewBox="0 0 1024 1024" version="1.1" xmlns="http://www.w3.org/2000/svg" p-id="2404" width="200" height="200"><path d="M352 128h32v128h-32zM640 576h128v32H640zM416 192h192v32H416zM640 128h32v128h-32zM448 448h128v32H448zM640 448h128v32H640zM448 576h128v32H448zM256 576h128v32H256z" p-id="2405"></path><path d="M864 192H704v32h160v64H160v-64h160v-32H160c-17.6 0-32 14.4-32 32v640c0 17.6 14.4 32 32 32h704c17.6 0 32-14.4 32-32V224c0-17.6-14.4-32-32-32z m0 672H160V320h704v544z" p-id="2406"></path><path d="M256 704h128v32H256zM256 448h128v32H256zM448 704h128v32H448z" p-id="2407"></path></svg>