<?xml version="1.0" encoding="utf-8"?>
<!-- Generator: Adobe Illustrator 25.3.1, SVG Export Plug-In . SVG Version: 6.00 Build 0)  -->
<svg version="1.1" id="图层_1" xmlns="http://www.w3.org/2000/svg" xmlns:xlink="http://www.w3.org/1999/xlink" x="0px" y="0px"
	 viewBox="0 0 200 200" style="enable-background:new 0 0 200 200;" xml:space="preserve">
<path d="M173.1,116.3c1.9-1.9,1.8-4.9-0.1-6.8c-1.9-1.9-4.9-1.8-6.8,0.1l-62.6,63.6V17.4c0-2.6-2.1-4.8-4.8-4.8
	c-2.6,0-4.8,2.1-4.8,4.8l0,155.1l-61.6-62.5c-1.9-1.9-4.9-1.9-6.8-0.1c-1.9,1.9-1.9,4.9-0.1,6.8l65.3,66.3c2.2,2.2,5,3.5,8.1,3.5
	c0.1,0,0.1,0,0.2,0c3,0,5.9-1.2,8.1-3.3c0,0,0,0,0.1-0.1L173.1,116.3z"/>
</svg>
