<?xml version="1.0" encoding="utf-8"?>
<!-- Generator: Adobe Illustrator 25.3.1, SVG Export Plug-In . SVG Version: 6.00 Build 0)  -->
<svg version="1.1" id="图层_1" xmlns="http://www.w3.org/2000/svg" xmlns:xlink="http://www.w3.org/1999/xlink" x="0px" y="0px"
	 viewBox="0 0 200 200" style="enable-background:new 0 0 200 200;" xml:space="preserve">
<style type="text/css">
	.st0{fill:#333333;}
</style>
<path class="st0" d="M175,156.2c0,3.5-2.8,6.2-6.2,6.2H31.2c-3.5,0-6.2-2.8-6.2-6.2s2.8-6.2,6.2-6.2h137.5
	C172.2,150,175,152.8,175,156.2z M118.8,100c0,3.4-2.8,6.2-6.3,6.2H31.3c-3.5,0-6.3-2.8-6.3-6.2c0-3.4,2.8-6.2,6.3-6.2h81.2
	C115.9,93.7,118.7,96.5,118.8,100C118.7,100,118.7,100,118.8,100z M175,43.8c0,3.5-2.8,6.2-6.2,6.2H31.2c-3.5,0-6.2-2.8-6.2-6.2
	s2.8-6.2,6.2-6.2h137.5C172.2,37.5,175,40.3,175,43.8z M133.1,126.8l26.8-26.8l-26.8-26.8c-2.4-2.5-2.3-6.4,0.2-8.8
	c2.4-2.3,6.3-2.3,8.7,0l31.2,31.2c2.4,2.4,2.4,6.4,0,8.8l-31.2,31.3c-2.5,2.4-6.4,2.3-8.8-0.2C130.7,133.1,130.7,129.3,133.1,126.8z
	"/>
</svg>
