<?xml version="1.0" encoding="utf-8"?>
<!-- Generator: Adobe Illustrator 25.3.1, SVG Export Plug-In . SVG Version: 6.00 Build 0)  -->
<svg version="1.1" id="图层_1" xmlns="http://www.w3.org/2000/svg" xmlns:xlink="http://www.w3.org/1999/xlink" x="0px" y="0px"
	 viewBox="0 0 200 200" style="enable-background:new 0 0 200 200;" xml:space="preserve">
<style type="text/css">
	.st0{fill:#4077D5;}
</style>
<path class="st0" d="M98.1,163.8c-35.5,0-64.2-28.8-64.2-64.2c0-35.5,28.8-64.2,64.2-64.2s64.2,28.8,64.2,64.2
	S133.5,163.8,98.1,163.8z M98.1,154.6c30.4,0,55-24.6,55-55c0-30.4-24.6-55-55-55c-30.4,0-55,24.6-55,55
	C43.1,130,67.7,154.6,98.1,154.6z"/>
<path class="st0" d="M139.9,81.3l-50,50c-1.2,1.3-2.5,1.3-5,1.3s-3.8,0-5-1.3l-25-25c-2.5-2.5-2.5-6.2,0-8.8c2.5-2.5,6.2-2.5,8.7,0
	l21.3,20l45-45c2.5-2.5,6.2-2.5,8.8,0C141.2,75.1,141.2,78.8,139.9,81.3z"/>
</svg>
