<svg t="1647766276102" class="icon" viewBox="0 0 1025 1024" version="1.1" xmlns="http://www.w3.org/2000/svg" p-id="8326" width="200" height="200"><path d="M853.883065 725.445778h-42.679161V375.416691c0-159.921913-129.636701-289.558614-289.558614-289.558614h-17.791312c-159.921913 0-289.558614 129.636701-289.558614 289.558614v350.129039h-42.679161c-11.794241 0-21.289605 9.595315-21.289605 21.289604 0 11.794241 9.595315 21.289605 21.289605 21.289605h193.10571c7.796193 60.17062 59.071157 106.647926 121.340752 106.647926h53.473889c62.269595 0 113.544558-46.477306 121.340752-106.647926h193.10571c11.794241 0 21.289605-9.595315 21.289605-21.289605 0-11.794241-9.595315-21.389556-21.389556-21.389556zM255.575207 375.416691c0-136.833187 111.345632-248.27877 248.278771-248.27877h17.791312c136.833187 0 248.27877 111.345632 248.278771 248.27877v350.129039H255.575207V375.416691z m283.961347 456.677013h-53.473889c-38.581162 0-70.865398-27.486579-78.261787-63.968765h210.097414c-7.49634 36.482186-39.780576 63.968765-78.361738 63.968765z" p-id="8327"></path></svg>