<?xml version="1.0" encoding="utf-8"?>
<!-- Generator: Adobe Illustrator 25.3.1, SVG Export Plug-In . SVG Version: 6.00 Build 0)  -->
<svg version="1.1" id="图层_1" xmlns="http://www.w3.org/2000/svg" xmlns:xlink="http://www.w3.org/1999/xlink" x="0px" y="0px"
	 viewBox="0 0 200 200" style="enable-background:new 0 0 200 200;" xml:space="preserve">
<style type="text/css">
	.st0{fill:#4077D5;}
</style>
<polygon class="st0" points="44.6,182.9 95.4,145.4 100,142.1 104.6,145.4 155.4,182.9 158.7,193 157.4,193.9 148.9,187.6 
	129,125.4 127.3,120.2 131.6,116.9 183.4,76.7 193.6,76.6 194.1,78.1 186.1,84.3 122,85 116.2,85 114.6,79.5 96,16.6 99.4,5.3 
	100.6,5.3 104,16.6 85.4,79.5 83.8,85 78,85 13.9,84.3 5.9,78.1 6.4,76.6 16.6,76.7 68.4,116.9 72.7,120.2 71,125.4 51.1,187.6 
	42.6,193.9 41.3,193 44.6,182.9 "/>
<polygon class="st0" points="100,151.6 40.6,195.4 63.7,123 3.8,76.5 78.1,77.3 100,3.1 121.9,77.3 196.2,76.5 136.3,123 
	159.4,195.4 100,151.6 "/>
</svg>
